<svg xmlns="http://www.w3.org/2000/svg" viewBox="0 0 347 96" width="347" height="96" fill="none" style="color:#18181b" role="img" aria-label="arXiv Chat">
  <mask id="paper-cut-lockup">
    <rect x="0" y="0" width="96" height="96" fill="#fff"/>
    <rect x="28" y="27" width="26" height="5" rx="2.5" fill="#000"/>
    <rect x="28" y="39" width="44" height="5" rx="2.5" fill="#000"/>
    <rect x="28" y="51" width="34" height="5" rx="2.5" fill="#000"/>
    <path d="M62 18 L74 30 L62 30 Z" fill="#000"/>
  </mask>
  <g fill="currentColor" mask="url(#paper-cut-lockup)">
    <path d="M30 14 L62 14 L80 32 L80 52 Q80 66 66 66 L30 66 Q16 66 16 52 L16 28 Q16 14 30 14 Z"/>
    <path d="M28 62 Q26 80 22 84 Q34 80 44 62 Z"/>
  </g>
  <path fill="currentColor" d="M122.6650390625 59.1025390625Q120.44140625 60.83203125 118.36376953125 61.69677734375Q116.2861328125 62.5615234375 113.703125 62.5615234375Q111.3447265625 62.5615234375 109.55908203125 61.62939453125Q107.7734375 60.697265625 106.8076171875 59.1025390625Q105.841796875 57.5078125 105.841796875 55.6435546875Q105.841796875 53.1279296875 107.4365234375 51.353515625Q109.03125 49.5791015625 111.81640625 48.97265625Q112.400390625 48.837890625 114.7138671875 48.3662109375Q117.02734375 47.89453125 118.67822265625 47.50146484375Q120.3291015625 47.1083984375 122.2607421875 46.546875Q122.1484375 44.12109375 121.28369140625 42.98681640625Q120.4189453125 41.8525390625 117.701171875 41.8525390625Q115.365234375 41.8525390625 114.18603515625 42.50390625Q113.0068359375 43.1552734375 112.16455078125 44.4580078125Q111.322265625 45.7607421875 110.97412109375 46.17626953125Q110.6259765625 46.591796875 109.48046875 46.591796875Q108.447265625 46.591796875 107.69482421875 45.92919921875Q106.9423828125 45.2666015625 106.9423828125 44.2333984375Q106.9423828125 42.6162109375 108.087890625 41.0888671875Q109.2333984375 39.5615234375 111.6591796875 38.5732421875Q114.0849609375 37.5849609375 117.701171875 37.5849609375Q121.744140625 37.5849609375 124.0576171875 38.53955078125Q126.37109375 39.494140625 127.32568359375 41.560546875Q128.2802734375 43.626953125 128.2802734375 47.041015625Q128.2802734375 49.197265625 128.26904296875 50.7021484375Q128.2578125 52.20703125 128.2353515625 54.048828125Q128.2353515625 55.7783203125 128.80810546875 57.65380859375Q129.380859375 59.529296875 129.380859375 60.068359375Q129.380859375 61.01171875 128.49365234375 61.78662109375Q127.6064453125 62.5615234375 126.4833984375 62.5615234375Q125.5400390625 62.5615234375 124.619140625 61.67431640625Q123.6982421875 60.787109375 122.6650390625 59.1025390625ZM122.2607421875 50.23046875Q120.9130859375 50.724609375 118.34130859375 51.27490234375Q115.76953125 51.8251953125 114.78125 52.08349609375Q113.79296875 52.341796875 112.89453125 53.09423828125Q111.99609375 53.8466796875 111.99609375 55.1943359375Q111.99609375 56.5869140625 113.0517578125 57.56396484375Q114.107421875 58.541015625 115.814453125 58.541015625Q117.6337890625 58.541015625 119.17236328125 57.74365234375Q120.7109375 56.9462890625 121.4296875 55.6884765625Q122.2607421875 54.2958984375 122.2607421875 51.1064453125Z M140.0888671875 53.7119140625V58.8330078125Q140.0888671875 60.697265625 139.212890625 61.62939453125Q138.3369140625 62.5615234375 136.9892578125 62.5615234375Q135.6640625 62.5615234375 134.810546875 61.6181640625Q133.95703125 60.6748046875 133.95703125 58.8330078125V41.7626953125Q133.95703125 37.6298828125 136.9443359375 37.6298828125Q138.4716796875 37.6298828125 139.1455078125 38.595703125Q139.8193359375 39.5615234375 139.88671875 41.4482421875Q140.9873046875 39.5615234375 142.14404296875 38.595703125Q143.30078125 37.6298828125 145.232421875 37.6298828125Q147.1640625 37.6298828125 148.9833984375 38.595703125Q150.802734375 39.5615234375 150.802734375 41.15625Q150.802734375 42.279296875 150.02783203125 43.00927734375Q149.2529296875 43.7392578125 148.3544921875 43.7392578125Q148.017578125 43.7392578125 146.72607421875 43.32373046875Q145.4345703125 42.908203125 144.4462890625 42.908203125Q143.0986328125 42.908203125 142.2451171875 43.61572265625Q141.3916015625 44.3232421875 140.919921875 45.7158203125Q140.4482421875 47.1083984375 140.2685546875 49.02880859375Q140.0888671875 50.94921875 140.0888671875 53.7119140625Z M152.86328125 61.5986328125 160.23046875 50.83984375 154.03125 41.271484375Q153.1552734375 39.87890625 152.71728515625 38.87939453125Q152.279296875 37.8798828125 152.279296875 36.958984375Q152.279296875 36.015625 153.12158203125 35.26318359375Q153.9638671875 34.5107421875 155.1767578125 34.5107421875Q156.5693359375 34.5107421875 157.34423828125 35.33056640625Q158.119140625 36.150390625 159.4892578125 38.3740234375L164.4306640625 46.3701171875L169.708984375 38.3740234375Q170.3603515625 37.36328125 170.82080078125 36.64453125Q171.28125 35.92578125 171.7080078125 35.4541015625Q172.134765625 34.982421875 172.66259765625 34.74658203125Q173.1904296875 34.5107421875 173.88671875 34.5107421875Q175.14453125 34.5107421875 175.94189453125 35.26318359375Q176.7392578125 36.015625 176.7392578125 37.048828125Q176.7392578125 38.5537109375 175.009765625 41.13671875L168.5185546875 50.83984375L175.50390625 61.5986328125Q176.447265625 63.013671875 176.8740234375 63.94580078125Q177.30078125 64.8779296875 177.30078125 65.708984375Q177.30078125 66.4951171875 176.9189453125 67.146484375Q176.537109375 67.7978515625 175.8408203125 68.1796875Q175.14453125 68.5615234375 174.2685546875 68.5615234375Q173.3251953125 68.5615234375 172.673828125 68.16845703125Q172.0224609375 67.775390625 171.6181640625 67.19140625Q171.2138671875 66.607421875 170.11328125 64.9228515625L164.318359375 55.8037109375L158.1640625 65.1923828125Q157.4453125 66.3154296875 157.14208984375 66.7646484375Q156.8388671875 67.2138671875 156.412109375 67.640625Q155.9853515625 68.0673828125 155.4013671875 68.314453125Q154.8173828125 68.5615234375 154.03125 68.5615234375Q152.818359375 68.5615234375 152.02099609375 67.8203125Q151.2236328125 67.0791015625 151.2236328125 65.6640625Q151.2236328125 64.001953125 152.86328125 61.5986328125Z M187.0654296875 41.111328125V58.8330078125Q187.0654296875 60.6748046875 186.189453125 61.6181640625Q185.3134765625 62.5615234375 183.9658203125 62.5615234375Q182.6181640625 62.5615234375 181.77587890625 61.595703125Q180.93359375 60.6298828125 180.93359375 58.8330078125V41.291015625Q180.93359375 39.4716796875 181.77587890625 38.55078125Q182.6181640625 37.6298828125 183.9658203125 37.6298828125Q185.3134765625 37.6298828125 186.189453125 38.55078125Q187.0654296875 39.4716796875 187.0654296875 41.111328125ZM184.033203125 34.77734375Q182.7529296875 34.77734375 181.84326171875 33.9912109375Q180.93359375 33.205078125 180.93359375 31.767578125Q180.93359375 30.46484375 181.86572265625 29.62255859375Q182.7978515625 28.7802734375 184.033203125 28.7802734375Q185.2236328125 28.7802734375 186.14453125 29.5439453125Q187.0654296875 30.3076171875 187.0654296875 31.767578125Q187.0654296875 33.1826171875 186.1669921875 33.97998046875Q185.2685546875 34.77734375 184.033203125 34.77734375Z M197.234375 41.4482421875 202.1982421875 55.3740234375 207.5439453125 40.841796875Q208.1728515625 39.08984375 208.779296875 38.35986328125Q209.3857421875 37.6298828125 210.62109375 37.6298828125Q211.7890625 37.6298828125 212.60888671875 38.416015625Q213.4287109375 39.2021484375 213.4287109375 40.2353515625Q213.4287109375 40.6396484375 213.28271484375 41.1787109375Q213.13671875 41.7177734375 212.94580078125 42.189453125Q212.7548828125 42.6611328125 212.5078125 43.267578125L206.623046875 57.8671875Q206.3759765625 58.49609375 205.98291015625 59.4619140625Q205.58984375 60.427734375 205.10693359375 61.11279296875Q204.6240234375 61.7978515625 203.91650390625 62.1796875Q203.208984375 62.5615234375 202.1982421875 62.5615234375Q200.8955078125 62.5615234375 200.12060546875 61.96630859375Q199.345703125 61.37109375 198.97509765625 60.66357421875Q198.6044921875 59.9560546875 197.728515625 57.8671875L191.888671875 43.4248046875Q191.6865234375 42.8857421875 191.47314453125 42.3466796875Q191.259765625 41.8076171875 191.11376953125 41.24609375Q190.9677734375 40.6845703125 190.9677734375 40.2802734375Q190.9677734375 39.6513671875 191.349609375 39.03369140625Q191.7314453125 38.416015625 192.4052734375 38.02294921875Q193.0791015625 37.6298828125 193.865234375 37.6298828125Q195.392578125 37.6298828125 195.96533203125 38.505859375Q196.5380859375 39.3818359375 197.234375 41.4482421875Z M257.8115234375 51.6005859375Q257.8115234375 53.1728515625 257.03662109375 55.00341796875Q256.26171875 56.833984375 254.599609375 58.59716796875Q252.9375 60.3603515625 250.3544921875 61.4609375Q247.771484375 62.5615234375 244.3349609375 62.5615234375Q241.7294921875 62.5615234375 239.595703125 62.0673828125Q237.4619140625 61.5732421875 235.72119140625 60.52880859375Q233.98046875 59.484375 232.5205078125 57.77734375Q231.2177734375 56.2275390625 230.296875 54.30712890625Q229.3759765625 52.38671875 228.91552734375 50.2080078125Q228.455078125 48.029296875 228.455078125 45.5810546875Q228.455078125 41.60546875 229.61181640625 38.4609375Q230.7685546875 35.31640625 232.9248046875 33.08154296875Q235.0810546875 30.8466796875 237.978515625 29.6787109375Q240.8759765625 28.5107421875 244.1552734375 28.5107421875Q248.1533203125 28.5107421875 251.275390625 30.10546875Q254.3974609375 31.7001953125 256.0595703125 34.04736328125Q257.7216796875 36.39453125 257.7216796875 38.4833984375Q257.7216796875 39.62890625 256.9130859375 40.5048828125Q256.1044921875 41.380859375 254.958984375 41.380859375Q253.6787109375 41.380859375 253.03857421875 40.7744140625Q252.3984375 40.16796875 251.6123046875 38.685546875Q250.3095703125 36.2373046875 248.54638671875 35.0244140625Q246.783203125 33.8115234375 244.2001953125 33.8115234375Q240.08984375 33.8115234375 237.65283203125 36.93359375Q235.2158203125 40.0556640625 235.2158203125 45.8056640625Q235.2158203125 49.646484375 236.2939453125 52.19580078125Q237.3720703125 54.7451171875 239.3486328125 56.0029296875Q241.3251953125 57.2607421875 243.9755859375 57.2607421875Q246.8505859375 57.2607421875 248.83837890625 55.83447265625Q250.826171875 54.408203125 251.8369140625 51.6455078125Q252.263671875 50.3427734375 252.892578125 49.52294921875Q253.521484375 48.703125 254.9140625 48.703125Q256.1044921875 48.703125 256.9580078125 49.5341796875Q257.8115234375 50.365234375 257.8115234375 51.6005859375Z M268.87890625 32.2392578125V41.3359375Q270.046875 39.98828125 271.15869140625 39.2021484375Q272.2705078125 38.416015625 273.6181640625 38.02294921875Q274.9658203125 37.6298828125 276.515625 37.6298828125Q278.8515625 37.6298828125 280.65966796875 38.6181640625Q282.4677734375 39.6064453125 283.5009765625 41.4931640625Q284.15234375 42.59375 284.376953125 43.95263671875Q284.6015625 45.3115234375 284.6015625 47.0859375V58.8330078125Q284.6015625 60.6748046875 283.75927734375 61.6181640625Q282.9169921875 62.5615234375 281.5244140625 62.5615234375Q278.4921875 62.5615234375 278.4921875 58.8330078125V48.478515625Q278.4921875 45.5361328125 277.6162109375 43.95263671875Q276.740234375 42.369140625 274.2919921875 42.369140625Q272.65234375 42.369140625 271.33837890625 43.30126953125Q270.0244140625 44.2333984375 269.373046875 45.8505859375Q268.87890625 47.220703125 268.87890625 50.724609375V58.8330078125Q268.87890625 60.65234375 268.05908203125 61.60693359375Q267.2392578125 62.5615234375 265.779296875 62.5615234375Q262.7470703125 62.5615234375 262.7470703125 58.8330078125V32.2392578125Q262.7470703125 30.375 263.54443359375 29.44287109375Q264.341796875 28.5107421875 265.779296875 28.5107421875Q267.2392578125 28.5107421875 268.05908203125 29.4541015625Q268.87890625 30.3974609375 268.87890625 32.2392578125Z M305.6640625 59.1025390625Q303.4404296875 60.83203125 301.36279296875 61.69677734375Q299.28515625 62.5615234375 296.7021484375 62.5615234375Q294.34375 62.5615234375 292.55810546875 61.62939453125Q290.7724609375 60.697265625 289.806640625 59.1025390625Q288.8408203125 57.5078125 288.8408203125 55.6435546875Q288.8408203125 53.1279296875 290.435546875 51.353515625Q292.0302734375 49.5791015625 294.8154296875 48.97265625Q295.3994140625 48.837890625 297.712890625 48.3662109375Q300.0263671875 47.89453125 301.67724609375 47.50146484375Q303.328125 47.1083984375 305.259765625 46.546875Q305.1474609375 44.12109375 304.28271484375 42.98681640625Q303.41796875 41.8525390625 300.7001953125 41.8525390625Q298.3642578125 41.8525390625 297.18505859375 42.50390625Q296.005859375 43.1552734375 295.16357421875 44.4580078125Q294.3212890625 45.7607421875 293.97314453125 46.17626953125Q293.625 46.591796875 292.4794921875 46.591796875Q291.4462890625 46.591796875 290.69384765625 45.92919921875Q289.94140625 45.2666015625 289.94140625 44.2333984375Q289.94140625 42.6162109375 291.0869140625 41.0888671875Q292.232421875 39.5615234375 294.658203125 38.5732421875Q297.083984375 37.5849609375 300.7001953125 37.5849609375Q304.7431640625 37.5849609375 307.056640625 38.53955078125Q309.3701171875 39.494140625 310.32470703125 41.560546875Q311.279296875 43.626953125 311.279296875 47.041015625Q311.279296875 49.197265625 311.26806640625 50.7021484375Q311.2568359375 52.20703125 311.234375 54.048828125Q311.234375 55.7783203125 311.80712890625 57.65380859375Q312.3798828125 59.529296875 312.3798828125 60.068359375Q312.3798828125 61.01171875 311.49267578125 61.78662109375Q310.60546875 62.5615234375 309.482421875 62.5615234375Q308.5390625 62.5615234375 307.6181640625 61.67431640625Q306.697265625 60.787109375 305.6640625 59.1025390625ZM305.259765625 50.23046875Q303.912109375 50.724609375 301.34033203125 51.27490234375Q298.7685546875 51.8251953125 297.7802734375 52.08349609375Q296.7919921875 52.341796875 295.8935546875 53.09423828125Q294.9951171875 53.8466796875 294.9951171875 55.1943359375Q294.9951171875 56.5869140625 296.05078125 57.56396484375Q297.1064453125 58.541015625 298.8134765625 58.541015625Q300.6328125 58.541015625 302.17138671875 57.74365234375Q303.7099609375 56.9462890625 304.4287109375 55.6884765625Q305.259765625 54.2958984375 305.259765625 51.1064453125Z M317.337890625 38.1689453125H318.01171875V34.4853515625Q318.01171875 33.0029296875 318.09033203125 32.16064453125Q318.1689453125 31.318359375 318.5283203125 30.7119140625Q318.8876953125 30.0830078125 319.5615234375 29.68994140625Q320.2353515625 29.296875 321.06640625 29.296875Q322.234375 29.296875 323.177734375 30.1728515625Q323.806640625 30.7568359375 323.97509765625 31.59912109375Q324.1435546875 32.44140625 324.1435546875 33.9912109375V38.1689453125H326.3896484375Q327.6923828125 38.1689453125 328.37744140625 38.78662109375Q329.0625 39.404296875 329.0625 40.3701171875Q329.0625 41.60546875 328.08544921875 42.099609375Q327.1083984375 42.59375 325.2890625 42.59375H324.1435546875V53.869140625Q324.1435546875 55.306640625 324.24462890625 56.08154296875Q324.345703125 56.8564453125 324.78369140625 57.33935546875Q325.2216796875 57.822265625 326.2099609375 57.822265625Q326.7490234375 57.822265625 327.669921875 57.63134765625Q328.5908203125 57.4404296875 329.107421875 57.4404296875Q329.8486328125 57.4404296875 330.44384765625 58.03564453125Q331.0390625 58.630859375 331.0390625 59.5068359375Q331.0390625 60.9892578125 329.421875 61.775390625Q327.8046875 62.5615234375 324.7724609375 62.5615234375Q321.8974609375 62.5615234375 320.4150390625 61.595703125Q318.9326171875 60.6298828125 318.47216796875 58.9228515625Q318.01171875 57.2158203125 318.01171875 54.36328125V42.59375H317.203125Q315.8779296875 42.59375 315.181640625 41.96484375Q314.4853515625 41.3359375 314.4853515625 40.3701171875Q314.4853515625 39.404296875 315.21533203125 38.78662109375Q315.9453125 38.1689453125 317.337890625 38.1689453125Z"/>
</svg>
